import * as Tone from 'tone';

const lh = [
  {"duration":0.15151525,"durationTicks":60,"midi":62,"name":"D4","ticks":0,"time":0,"velocity":0.5039370078740157},
  {"duration":0.15151525,"durationTicks":60,"midi":64,"name":"E4","ticks":60,"time":0.15151525,"velocity":0.5039370078740157},
  {"duration":0.15151525,"durationTicks":60,"midi":65,"name":"F4","ticks":120,"time":0.3030305,"velocity":0.5039370078740157},
  {"duration":0.15151525,"durationTicks":60,"midi":67,"name":"G4","ticks":180,"time":0.45454574999999997,"velocity":0.5039370078740157},
  {"duration":0.15151525,"durationTicks":60,"midi":69,"name":"A4","ticks":240,"time":0.606061,"velocity":0.5039370078740157},
  {"duration":0.15151525,"durationTicks":60,"midi":70,"name":"A#4","ticks":300,"time":0.75757625,"velocity":0.5039370078740157},
  {"duration":0.15151524999999988,"durationTicks":60,"midi":61,"name":"C#4","ticks":360,"time":0.9090914999999999,"velocity":0.5039370078740157},
  {"duration":0.1515152500000001,"durationTicks":60,"midi":70,"name":"A#4","ticks":420,"time":1.0606067499999998,"velocity":0.5039370078740157},
  {"duration":0.1515152500000001,"durationTicks":60,"midi":69,"name":"A4","ticks":480,"time":1.212122,"velocity":0.5039370078740157},
  {"duration":0.15151524999999988,"durationTicks":60,"midi":67,"name":"G4","ticks":540,"time":1.36363725,"velocity":0.5039370078740157},
  {"duration":0.15151524999999988,"durationTicks":60,"midi":65,"name":"F4","ticks":600,"time":1.5151525,"velocity":0.5039370078740157},
  {"duration":0.1515152500000001,"durationTicks":60,"midi":64,"name":"E4","ticks":660,"time":1.6666677499999998,"velocity":0.5039370078740157},
  {"duration":0.30303049999999976,"durationTicks":120,"midi":65,"name":"F4","ticks":720,"time":1.8181829999999999,"velocity":0.5039370078740157},
  {"duration":0.3030305000000002,"durationTicks":120,"midi":69,"name":"A4","ticks":840,"time":2.1212134999999996,"velocity":0.5039370078740157},
  {"duration":0.3030305000000002,"durationTicks":120,"midi":74,"name":"D5","ticks":960,"time":2.424244,"velocity":0.5039370078740157},
  {"duration":0.30303049999999976,"durationTicks":120,"midi":67,"name":"G4","ticks":1080,"time":2.7272745,"velocity":0.5039370078740157},
  {"duration":0.30303049999999976,"durationTicks":120,"midi":70,"name":"A#4","ticks":1200,"time":3.030305,"velocity":0.5039370078740157},
  {"duration":0.3030305000000002,"durationTicks":120,"midi":76,"name":"E5","ticks":1320,"time":3.3333354999999996,"velocity":0.5039370078740157},
  {"duration":0.1515152500000001,"durationTicks":60,"midi":74,"name":"D5","ticks":1440,"time":3.6363659999999998,"velocity":0.5039370078740157},
  {"duration":0.1515152500000001,"durationTicks":60,"midi":76,"name":"E5","ticks":1500,"time":3.78788125,"velocity":0.5039370078740157},
  {"duration":0.1515152500000001,"durationTicks":60,"midi":77,"name":"F5","ticks":1560,"time":3.9393965,"velocity":0.5039370078740157},
  {"duration":0.1515152499999992,"durationTicks":60,"midi":79,"name":"G5","ticks":1620,"time":4.09091175,"velocity":0.5039370078740157},
  {"duration":0.1515152500000001,"durationTicks":60,"midi":81,"name":"A5","ticks":1680,"time":4.242426999999999,"velocity":0.5039370078740157},
  {"duration":0.1515152500000001,"durationTicks":60,"midi":82,"name":"A#5","ticks":1740,"time":4.393942249999999,"velocity":0.5039370078740157},
  {"duration":0.1515152500000001,"durationTicks":60,"midi":73,"name":"C#5","ticks":1800,"time":4.5454574999999995,"velocity":0.5039370078740157},
  {"duration":0.1515152500000001,"durationTicks":60,"midi":82,"name":"A#5","ticks":1860,"time":4.69697275,"velocity":0.5039370078740157},
  {"duration":0.1515152500000001,"durationTicks":60,"midi":81,"name":"A5","ticks":1920,"time":4.848488,"velocity":0.5039370078740157},
  {"duration":0.1515152500000001,"durationTicks":60,"midi":79,"name":"G5","ticks":1980,"time":5.00000325,"velocity":0.5039370078740157},
  {"duration":0.1515152500000001,"durationTicks":60,"midi":77,"name":"F5","ticks":2040,"time":5.1515185,"velocity":0.5039370078740157},
  {"duration":0.1515152500000001,"durationTicks":60,"midi":76,"name":"E5","ticks":2100,"time":5.30303375,"velocity":0.5039370078740157},
  {"duration":0.1515152499999992,"durationTicks":60,"midi":77,"name":"F5","ticks":2160,"time":5.454549,"velocity":0.5039370078740157},
  {"duration":0.1515152500000001,"durationTicks":60,"midi":74,"name":"D5","ticks":2220,"time":5.606064249999999,"velocity":0.5039370078740157},
  {"duration":0.1515152500000001,"durationTicks":60,"midi":76,"name":"E5","ticks":2280,"time":5.757579499999999,"velocity":0.5039370078740157},
  {"duration":0.1515152500000001,"durationTicks":60,"midi":77,"name":"F5","ticks":2340,"time":5.9090947499999995,"velocity":0.5039370078740157},
  {"duration":0.1515152500000001,"durationTicks":60,"midi":79,"name":"G5","ticks":2400,"time":6.06061,"velocity":0.5039370078740157},
  {"duration":0.1515152500000001,"durationTicks":60,"midi":81,"name":"A5","ticks":2460,"time":6.21212525,"velocity":0.5039370078740157},
  {"duration":0.1515152500000001,"durationTicks":60,"midi":70,"name":"A#4","ticks":2520,"time":6.3636405,"velocity":0.5039370078740157},
  {"duration":0.1515152499999992,"durationTicks":60,"midi":81,"name":"A5","ticks":2580,"time":6.51515575,"velocity":0.5039370078740157},
  {"duration":0.1515152500000001,"durationTicks":60,"midi":79,"name":"G5","ticks":2640,"time":6.666670999999999,"velocity":0.5039370078740157},
  {"duration":0.1515152500000001,"durationTicks":60,"midi":77,"name":"F5","ticks":2700,"time":6.818186249999999,"velocity":0.5039370078740157},
  {"duration":0.1515152500000001,"durationTicks":60,"midi":76,"name":"E5","ticks":2760,"time":6.969701499999999,"velocity":0.5039370078740157},
  {"duration":0.1515152500000001,"durationTicks":60,"midi":74,"name":"D5","ticks":2820,"time":7.121216749999999,"velocity":0.5039370078740157},
  {"duration":0.1515152500000001,"durationTicks":60,"midi":76,"name":"E5","ticks":2880,"time":7.2727319999999995,"velocity":0.5039370078740157},
  {"duration":0.1515152500000001,"durationTicks":60,"midi":72,"name":"C5","ticks":2940,"time":7.42424725,"velocity":0.5039370078740157},
  {"duration":0.1515152500000001,"durationTicks":60,"midi":74,"name":"D5","ticks":3000,"time":7.5757625,"velocity":0.5039370078740157},
  {"duration":0.1515152500000001,"durationTicks":60,"midi":76,"name":"E5","ticks":3060,"time":7.72727775,"velocity":0.5039370078740157},
  {"duration":0.1515152499999992,"durationTicks":60,"midi":77,"name":"F5","ticks":3120,"time":7.878793,"velocity":0.5039370078740157},
  {"duration":0.151515250000001,"durationTicks":60,"midi":79,"name":"G5","ticks":3180,"time":8.03030825,"velocity":0.5039370078740157},
  {"duration":0.1515152499999992,"durationTicks":60,"midi":69,"name":"A4","ticks":3240,"time":8.1818235,"velocity":0.5039370078740157},
  {"duration":0.1515152499999992,"durationTicks":60,"midi":79,"name":"G5","ticks":3300,"time":8.33333875,"velocity":0.5039370078740157},
  {"duration":0.151515250000001,"durationTicks":60,"midi":77,"name":"F5","ticks":3360,"time":8.484853999999999,"velocity":0.5039370078740157},
  {"duration":0.1515152499999992,"durationTicks":60,"midi":76,"name":"E5","ticks":3420,"time":8.63636925,"velocity":0.5039370078740157},
  {"duration":0.151515250000001,"durationTicks":60,"midi":74,"name":"D5","ticks":3480,"time":8.787884499999999,"velocity":0.5039370078740157},
  {"duration":0.1515152499999992,"durationTicks":60,"midi":72,"name":"C5","ticks":3540,"time":8.93939975,"velocity":0.5039370078740157},
  {"duration":0.151515250000001,"durationTicks":60,"midi":74,"name":"D5","ticks":3600,"time":9.090914999999999,"velocity":0.5039370078740157},
  {"duration":0.1515152499999992,"durationTicks":60,"midi":76,"name":"E5","ticks":3660,"time":9.24243025,"velocity":0.5039370078740157},
  {"duration":0.151515250000001,"durationTicks":60,"midi":77,"name":"F5","ticks":3720,"time":9.3939455,"velocity":0.5039370078740157},
  {"duration":0.1515152499999992,"durationTicks":60,"midi":74,"name":"D5","ticks":3780,"time":9.54546075,"velocity":0.5039370078740157},
  {"duration":0.1515152499999992,"durationTicks":60,"midi":76,"name":"E5","ticks":3840,"time":9.696976,"velocity":0.5039370078740157},
  {"duration":0.151515250000001,"durationTicks":60,"midi":77,"name":"F5","ticks":3900,"time":9.848491249999999,"velocity":0.5039370078740157},
  {"duration":0.3030305000000002,"durationTicks":120,"midi":67,"name":"G4","ticks":3960,"time":10.0000065,"velocity":0.5039370078740157},
  {"duration":0.1515152499999992,"durationTicks":60,"midi":72,"name":"C5","ticks":4320,"time":10.909098,"velocity":0.5039370078740157},
  {"duration":0.1515152499999992,"durationTicks":60,"midi":74,"name":"D5","ticks":4380,"time":11.06061325,"velocity":0.5039370078740157},
  {"duration":0.151515250000001,"durationTicks":60,"midi":76,"name":"E5","ticks":4440,"time":11.212128499999999,"velocity":0.5039370078740157},
  {"duration":0.1515152499999992,"durationTicks":60,"midi":72,"name":"C5","ticks":4500,"time":11.36364375,"velocity":0.5039370078740157},
  {"duration":0.151515250000001,"durationTicks":60,"midi":74,"name":"D5","ticks":4560,"time":11.515158999999999,"velocity":0.5039370078740157},
  {"duration":0.1515152499999992,"durationTicks":60,"midi":76,"name":"E5","ticks":4620,"time":11.66667425,"velocity":0.5039370078740157},
  {"duration":0.3030305000000002,"durationTicks":120,"midi":65,"name":"F4","ticks":4680,"time":11.818189499999999,"velocity":0.5039370078740157},
  {"duration":0.6060610000000004,"durationTicks":240,"midi":70,"name":"A#4","ticks":4920,"time":12.4242505,"velocity":0.5039370078740157},
  {"duration":0.3030304999999984,"durationTicks":120,"midi":69,"name":"A4","ticks":5160,"time":13.0303115,"velocity":0.5039370078740157},
  {"duration":0.3030305000000002,"durationTicks":120,"midi":67,"name":"G4","ticks":5280,"time":13.333341999999998,"velocity":0.5039370078740157},
  {"duration":0.151515250000001,"durationTicks":60,"midi":72,"name":"C5","ticks":5400,"time":13.636372499999998,"velocity":0.5039370078740157},
  {"duration":0.1515152499999992,"durationTicks":60,"midi":70,"name":"A#4","ticks":5460,"time":13.78788775,"velocity":0.5039370078740157},
  {"duration":0.151515250000001,"durationTicks":60,"midi":69,"name":"A4","ticks":5520,"time":13.939402999999999,"velocity":0.5039370078740157},
  {"duration":0.1515152499999992,"durationTicks":60,"midi":67,"name":"G4","ticks":5580,"time":14.09091825,"velocity":0.5039370078740157},
  {"duration":0.151515250000001,"durationTicks":60,"midi":65,"name":"F4","ticks":5640,"time":14.242433499999999,"velocity":0.5039370078740157},
  {"duration":0.1515152499999992,"durationTicks":60,"midi":64,"name":"E4","ticks":5700,"time":14.39394875,"velocity":0.5039370078740157},
  {"duration":0.1515152499999992,"durationTicks":60,"midi":65,"name":"F4","ticks":5760,"time":14.545463999999999,"velocity":0.5039370078740157},
  {"duration":0.151515250000001,"durationTicks":60,"midi":67,"name":"G4","ticks":5820,"time":14.696979249999998,"velocity":0.5039370078740157},
  {"duration":0.0757576249999996,"durationTicks":30,"midi":67,"name":"G4","ticks":5880,"time":14.8484945,"velocity":0.5039370078740157},
  {"duration":0.0757576249999996,"durationTicks":30,"midi":69,"name":"A4","ticks":5910,"time":14.924252124999999,"velocity":0.5039370078740157},
  {"duration":0.3030305000000002,"durationTicks":120,"midi":67,"name":"G4","ticks":5940,"time":15.000009749999998,"velocity":0.5039370078740157},
  {"duration":0.151515250000001,"durationTicks":60,"midi":65,"name":"F4","ticks":6060,"time":15.303040249999999,"velocity":0.5039370078740157},
  {"duration":0.3030305000000002,"durationTicks":120,"midi":65,"name":"F4","ticks":6120,"time":15.4545555,"velocity":0.5039370078740157},
  {"duration":0.3030304999999984,"durationTicks":120,"midi":72,"name":"C5","ticks":6240,"time":15.757586,"velocity":0.5039370078740157},
  {"duration":0.303030500000002,"durationTicks":120,"midi":72,"name":"C5","ticks":6360,"time":16.0606165,"velocity":0.5039370078740157},
  {"duration":0.07575762499999783,"durationTicks":30,"midi":72,"name":"C5","ticks":6480,"time":16.363647,"velocity":0.5039370078740157},
  {"duration":0.08333338750000152,"durationTicks":33,"midi":74,"name":"D5","ticks":6510,"time":16.439404624999998,"velocity":0.5039370078740157},
  {"duration":0.08333338749999797,"durationTicks":33,"midi":72,"name":"C5","ticks":6540,"time":16.51516225,"velocity":0.3779527559055118},
  {"duration":0.08333338750000152,"durationTicks":33,"midi":74,"name":"D5","ticks":6570,"time":16.590919874999997,"velocity":0.3779527559055118},
  {"duration":0.08333338750000152,"durationTicks":33,"midi":72,"name":"C5","ticks":6600,"time":16.6666775,"velocity":0.3779527559055118},
  {"duration":0.08333338749999797,"durationTicks":33,"midi":74,"name":"D5","ticks":6630,"time":16.742435125,"velocity":0.3858267716535433},
  {"duration":0.08333338750000152,"durationTicks":33,"midi":72,"name":"C5","ticks":6660,"time":16.818192749999998,"velocity":0.3858267716535433},
  {"duration":0.08333338749999797,"durationTicks":33,"midi":74,"name":"D5","ticks":6690,"time":16.893950375,"velocity":0.3858267716535433},
  {"duration":0.08333338750000152,"durationTicks":33,"midi":72,"name":"C5","ticks":6720,"time":16.969707999999997,"velocity":0.3937007874015748},
  {"duration":0.08333338750000152,"durationTicks":33,"midi":74,"name":"D5","ticks":6750,"time":17.045465625,"velocity":0.3937007874015748},
  {"duration":0.08333338749999797,"durationTicks":33,"midi":72,"name":"C5","ticks":6780,"time":17.12122325,"velocity":0.4015748031496063},
  {"duration":0.08333338750000152,"durationTicks":33,"midi":74,"name":"D5","ticks":6810,"time":17.196980874999998,"velocity":0.4015748031496063},
  {"duration":0.08333338749999797,"durationTicks":33,"midi":72,"name":"C5","ticks":6840,"time":17.2727385,"velocity":0.4015748031496063},
  {"duration":0.08333338749999797,"durationTicks":33,"midi":74,"name":"D5","ticks":6870,"time":17.348496125,"velocity":0.4094488188976378},
  {"duration":0.08333338750000152,"durationTicks":33,"midi":72,"name":"C5","ticks":6900,"time":17.42425375,"velocity":0.4094488188976378},
  {"duration":0.08333338749999797,"durationTicks":33,"midi":74,"name":"D5","ticks":6930,"time":17.500011375,"velocity":0.4094488188976378},
  {"duration":0.08333338750000152,"durationTicks":33,"midi":72,"name":"C5","ticks":6960,"time":17.575768999999998,"velocity":0.41732283464566927},
  {"duration":0.08333338749999797,"durationTicks":33,"midi":74,"name":"D5","ticks":6990,"time":17.651526625,"velocity":0.41732283464566927},
  {"duration":0.08333338749999797,"durationTicks":33,"midi":72,"name":"C5","ticks":7020,"time":17.72728425,"velocity":0.41732283464566927},
  {"duration":0.08333338750000152,"durationTicks":33,"midi":74,"name":"D5","ticks":7050,"time":17.803041874999998,"velocity":0.4251968503937008},
  {"duration":0.08333338749999797,"durationTicks":33,"midi":72,"name":"C5","ticks":7080,"time":17.8787995,"velocity":0.4251968503937008},
  {"duration":0.08333338750000152,"durationTicks":33,"midi":74,"name":"D5","ticks":7110,"time":17.954557124999997,"velocity":0.4251968503937008},
  {"duration":0.08333338749999797,"durationTicks":33,"midi":72,"name":"C5","ticks":7140,"time":18.03031475,"velocity":0.4330708661417323},
  {"duration":0.08333338749999797,"durationTicks":33,"midi":74,"name":"D5","ticks":7170,"time":18.106072375,"velocity":0.4330708661417323},
  {"duration":0.08333338750000152,"durationTicks":33,"midi":72,"name":"C5","ticks":7200,"time":18.181829999999998,"velocity":0.4330708661417323},
  {"duration":0.08333338749999797,"durationTicks":33,"midi":74,"name":"D5","ticks":7230,"time":18.257587625,"velocity":0.4409448818897638},
  {"duration":0.08333338750000152,"durationTicks":33,"midi":72,"name":"C5","ticks":7260,"time":18.333345249999997,"velocity":0.4409448818897638},
  {"duration":0.08333338750000152,"durationTicks":33,"midi":74,"name":"D5","ticks":7290,"time":18.409102875,"velocity":0.44881889763779526},
  {"duration":0.08333338749999797,"durationTicks":33,"midi":72,"name":"C5","ticks":7320,"time":18.4848605,"velocity":0.44881889763779526},
  {"duration":0.08333338750000152,"durationTicks":33,"midi":74,"name":"D5","ticks":7350,"time":18.560618124999998,"velocity":0.44881889763779526},
  {"duration":0.08333338749999797,"durationTicks":33,"midi":72,"name":"C5","ticks":7380,"time":18.63637575,"velocity":0.4566929133858268},
  {"duration":0.08333338749999797,"durationTicks":33,"midi":74,"name":"D5","ticks":7410,"time":18.712133375,"velocity":0.4566929133858268},
  {"duration":0.08333338750000152,"durationTicks":33,"midi":72,"name":"C5","ticks":7440,"time":18.787891,"velocity":0.4566929133858268},
  {"duration":0.08333338749999797,"durationTicks":33,"midi":74,"name":"D5","ticks":7470,"time":18.863648625,"velocity":0.4645669291338583},
  {"duration":0.08333338750000152,"durationTicks":33,"midi":72,"name":"C5","ticks":7500,"time":18.939406249999998,"velocity":0.4645669291338583},
  {"duration":0.08333338749999797,"durationTicks":33,"midi":74,"name":"D5","ticks":7530,"time":19.015163875,"velocity":0.4645669291338583},
  {"duration":0.1515152499999992,"durationTicks":60,"midi":72,"name":"C5","ticks":7560,"time":19.0909215,"velocity":0.5039370078740157},
  {"duration":0.1515152499999992,"durationTicks":60,"midi":70,"name":"A#4","ticks":7620,"time":19.24243675,"velocity":0.5039370078740157},
  {"duration":0.1515152499999992,"durationTicks":60,"midi":69,"name":"A4","ticks":7680,"time":19.393952,"velocity":0.5039370078740157},
  {"duration":0.1515152499999992,"durationTicks":60,"midi":67,"name":"G4","ticks":7740,"time":19.545467249999998,"velocity":0.5039370078740157},
  {"duration":0.15151525000000277,"durationTicks":60,"midi":65,"name":"F4","ticks":7800,"time":19.696982499999997,"velocity":0.5039370078740157},
  {"duration":0.1515152499999992,"durationTicks":60,"midi":64,"name":"E4","ticks":7860,"time":19.84849775,"velocity":0.5039370078740157},
  {"duration":0.1515152499999992,"durationTicks":60,"midi":72,"name":"C5","ticks":7920,"time":20.000013,"velocity":0.5039370078740157},
  {"duration":0.1515152499999992,"durationTicks":60,"midi":62,"name":"D4","ticks":7980,"time":20.15152825,"velocity":0.5039370078740157},
  {"duration":0.15151525000000277,"durationTicks":60,"midi":64,"name":"E4","ticks":8040,"time":20.303043499999998,"velocity":0.5039370078740157},
  {"duration":0.1515152499999992,"durationTicks":60,"midi":66,"name":"F#4","ticks":8100,"time":20.45455875,"velocity":0.5039370078740157},
  {"duration":0.1515152499999992,"durationTicks":60,"midi":67,"name":"G4","ticks":8160,"time":20.606074,"velocity":0.5039370078740157},
  {"duration":0.1515152499999992,"durationTicks":60,"midi":69,"name":"A4","ticks":8220,"time":20.75758925,"velocity":0.5039370078740157},
  {"duration":0.1515152499999992,"durationTicks":60,"midi":70,"name":"A#4","ticks":8280,"time":20.909104499999998,"velocity":0.5039370078740157},
  {"duration":0.15151525000000277,"durationTicks":60,"midi":69,"name":"A4","ticks":8340,"time":21.060619749999997,"velocity":0.5039370078740157},
  {"duration":0.1515152499999992,"durationTicks":60,"midi":67,"name":"G4","ticks":8400,"time":21.212135,"velocity":0.5039370078740157},
  {"duration":0.1515152499999992,"durationTicks":60,"midi":65,"name":"F4","ticks":8460,"time":21.36365025,"velocity":0.5039370078740157},
  {"duration":0.1515152499999992,"durationTicks":60,"midi":64,"name":"E4","ticks":8520,"time":21.5151655,"velocity":0.5039370078740157},
  {"duration":0.15151525000000277,"durationTicks":60,"midi":62,"name":"D4","ticks":8580,"time":21.666680749999998,"velocity":0.5039370078740157},
  {"duration":0.1515152499999992,"durationTicks":60,"midi":70,"name":"A#4","ticks":8640,"time":21.818196,"velocity":0.5039370078740157},
  {"duration":0.1515152499999992,"durationTicks":60,"midi":60,"name":"C4","ticks":8700,"time":21.96971125,"velocity":0.5039370078740157},
  {"duration":0.1515152499999992,"durationTicks":60,"midi":62,"name":"D4","ticks":8760,"time":22.1212265,"velocity":0.5039370078740157},
  {"duration":0.1515152499999992,"durationTicks":60,"midi":64,"name":"E4","ticks":8820,"time":22.272741749999998,"velocity":0.5039370078740157},
  {"duration":0.15151525000000277,"durationTicks":60,"midi":65,"name":"F4","ticks":8880,"time":22.424256999999997,"velocity":0.5039370078740157},
  {"duration":0.1515152499999992,"durationTicks":60,"midi":67,"name":"G4","ticks":8940,"time":22.57577225,"velocity":0.5039370078740157},
  {"duration":0.1515152499999992,"durationTicks":60,"midi":69,"name":"A4","ticks":9000,"time":22.7272875,"velocity":0.5039370078740157},
  {"duration":0.1515152499999992,"durationTicks":60,"midi":71,"name":"B4","ticks":9060,"time":22.87880275,"velocity":0.5039370078740157},
  {"duration":0.1515152499999992,"durationTicks":60,"midi":72,"name":"C5","ticks":9120,"time":23.030317999999998,"velocity":0.5039370078740157},
  {"duration":0.15151525000000277,"durationTicks":60,"midi":74,"name":"D5","ticks":9180,"time":23.181833249999997,"velocity":0.5039370078740157},
  {"duration":0.1515152499999992,"durationTicks":60,"midi":76,"name":"E5","ticks":9240,"time":23.3333485,"velocity":0.5039370078740157},
  {"duration":0.1515152499999992,"durationTicks":60,"midi":77,"name":"F5","ticks":9300,"time":23.48486375,"velocity":0.5039370078740157},
  {"duration":0.1515152499999992,"durationTicks":60,"midi":68,"name":"G#4","ticks":9360,"time":23.636378999999998,"velocity":0.5039370078740157},
  {"duration":0.15151525000000277,"durationTicks":60,"midi":77,"name":"F5","ticks":9420,"time":23.787894249999997,"velocity":0.5039370078740157},
  {"duration":0.1515152499999992,"durationTicks":60,"midi":76,"name":"E5","ticks":9480,"time":23.9394095,"velocity":0.5039370078740157},
  {"duration":0.1515152499999992,"durationTicks":60,"midi":74,"name":"D5","ticks":9540,"time":24.09092475,"velocity":0.5039370078740157},
  {"duration":0.1515152499999992,"durationTicks":60,"midi":72,"name":"C5","ticks":9600,"time":24.24244,"velocity":0.5039370078740157},
  {"duration":0.1515152499999992,"durationTicks":60,"midi":71,"name":"B4","ticks":9660,"time":24.393955249999998,"velocity":0.5039370078740157},
  {"duration":0.15151525000000277,"durationTicks":60,"midi":72,"name":"C5","ticks":9720,"time":24.545470499999997,"velocity":0.5039370078740157},
  {"duration":0.1515152499999992,"durationTicks":60,"midi":71,"name":"B4","ticks":9780,"time":24.69698575,"velocity":0.5039370078740157},
  {"duration":0.1515152499999992,"durationTicks":60,"midi":74,"name":"D5","ticks":9840,"time":24.848501,"velocity":0.5039370078740157},
  {"duration":0.1515152499999992,"durationTicks":60,"midi":72,"name":"C5","ticks":9900,"time":25.000016249999998,"velocity":0.5039370078740157},
  {"duration":0.15151525000000277,"durationTicks":60,"midi":71,"name":"B4","ticks":9960,"time":25.151531499999997,"velocity":0.5039370078740157},
  {"duration":0.1515152499999992,"durationTicks":60,"midi":69,"name":"A4","ticks":10020,"time":25.30304675,"velocity":0.5039370078740157},
  {"duration":0.1515152499999992,"durationTicks":60,"midi":68,"name":"G#4","ticks":10080,"time":25.454562,"velocity":0.5039370078740157},
  {"duration":0.1515152499999992,"durationTicks":60,"midi":69,"name":"A4","ticks":10140,"time":25.60607725,"velocity":0.5039370078740157},
  {"duration":0.1515152499999992,"durationTicks":60,"midi":68,"name":"G#4","ticks":10200,"time":25.757592499999998,"velocity":0.5039370078740157},
  {"duration":0.15151525000000277,"durationTicks":60,"midi":66,"name":"F#4","ticks":10260,"time":25.909107749999997,"velocity":0.5039370078740157},
  {"duration":0.1515152499999992,"durationTicks":60,"midi":64,"name":"E4","ticks":10320,"time":26.060623,"velocity":0.5039370078740157},
  {"duration":0.1515152499999992,"durationTicks":60,"midi":62,"name":"D4","ticks":10380,"time":26.21213825,"velocity":0.5039370078740157},
  {"duration":0.1515152499999992,"durationTicks":60,"midi":60,"name":"C4","ticks":10440,"time":26.363653499999998,"velocity":0.5039370078740157},
  {"duration":0.1515152499999992,"durationTicks":60,"midi":62,"name":"D4","ticks":10500,"time":26.515168749999997,"velocity":0.5039370078740157},
  {"duration":0.15151525000000277,"durationTicks":60,"midi":64,"name":"E4","ticks":10560,"time":26.666683999999997,"velocity":0.5039370078740157},
  {"duration":0.1515152499999992,"durationTicks":60,"midi":66,"name":"F#4","ticks":10620,"time":26.81819925,"velocity":0.5039370078740157},
  {"duration":0.1515152499999992,"durationTicks":60,"midi":68,"name":"G#4","ticks":10680,"time":26.9697145,"velocity":0.5039370078740157},
  {"duration":0.1515152499999992,"durationTicks":60,"midi":69,"name":"A4","ticks":10740,"time":27.121229749999998,"velocity":0.5039370078740157},
  {"duration":0.15151525000000277,"durationTicks":60,"midi":62,"name":"D4","ticks":10800,"time":27.272744999999997,"velocity":0.5039370078740157},
  {"duration":0.1515152499999992,"durationTicks":60,"midi":72,"name":"C5","ticks":10860,"time":27.42426025,"velocity":0.5039370078740157},
  {"duration":0.1515152499999992,"durationTicks":60,"midi":71,"name":"B4","ticks":10920,"time":27.5757755,"velocity":0.5039370078740157},
  {"duration":0.1515152499999992,"durationTicks":60,"midi":69,"name":"A4","ticks":10980,"time":27.727290749999998,"velocity":0.5039370078740157},
  {"duration":0.1515152499999992,"durationTicks":60,"midi":68,"name":"G#4","ticks":11040,"time":27.878805999999997,"velocity":0.5039370078740157},
  {"duration":0.15151525000000277,"durationTicks":60,"midi":66,"name":"F#4","ticks":11100,"time":28.030321249999997,"velocity":0.5039370078740157},
  {"duration":0.1515152499999992,"durationTicks":60,"midi":64,"name":"E4","ticks":11160,"time":28.1818365,"velocity":0.5039370078740157},
  {"duration":0.1515152499999992,"durationTicks":60,"midi":66,"name":"F#4","ticks":11220,"time":28.33335175,"velocity":0.5039370078740157},
  {"duration":0.1515152499999992,"durationTicks":60,"midi":68,"name":"G#4","ticks":11280,"time":28.484866999999998,"velocity":0.5039370078740157},
  {"duration":0.15151525000000277,"durationTicks":60,"midi":69,"name":"A4","ticks":11340,"time":28.636382249999997,"velocity":0.5039370078740157},
  {"duration":0.1515152499999992,"durationTicks":60,"midi":71,"name":"B4","ticks":11400,"time":28.7878975,"velocity":0.5039370078740157},
  {"duration":0.1515152499999992,"durationTicks":60,"midi":72,"name":"C5","ticks":11460,"time":28.93941275,"velocity":0.5039370078740157},
  {"duration":0.1515152499999992,"durationTicks":60,"midi":66,"name":"F#4","ticks":11520,"time":29.090927999999998,"velocity":0.5039370078740157},
  {"duration":0.1515152499999992,"durationTicks":60,"midi":76,"name":"E5","ticks":11580,"time":29.242443249999997,"velocity":0.5039370078740157},
  {"duration":0.15151525000000277,"durationTicks":60,"midi":74,"name":"D5","ticks":11640,"time":29.393958499999997,"velocity":0.5039370078740157},
  {"duration":0.1515152499999992,"durationTicks":60,"midi":72,"name":"C5","ticks":11700,"time":29.54547375,"velocity":0.5039370078740157},
  {"duration":0.1515152499999992,"durationTicks":60,"midi":71,"name":"B4","ticks":11760,"time":29.696989,"velocity":0.5039370078740157},
  {"duration":0.1515152499999992,"durationTicks":60,"midi":69,"name":"A4","ticks":11820,"time":29.848504249999998,"velocity":0.5039370078740157},
  {"duration":0.15151525000000277,"durationTicks":60,"midi":68,"name":"G#4","ticks":11880,"time":30.000019499999997,"velocity":0.5039370078740157},
  {"duration":0.1515152499999992,"durationTicks":60,"midi":69,"name":"A4","ticks":11940,"time":30.15153475,"velocity":0.5039370078740157},
  {"duration":0.1515152499999992,"durationTicks":60,"midi":71,"name":"B4","ticks":12000,"time":30.30305,"velocity":0.5039370078740157},
  {"duration":0.1515152499999992,"durationTicks":60,"midi":72,"name":"C5","ticks":12060,"time":30.454565249999998,"velocity":0.5039370078740157},
  {"duration":0.1515152499999992,"durationTicks":60,"midi":74,"name":"D5","ticks":12120,"time":30.606080499999997,"velocity":0.5039370078740157},
  {"duration":0.15151525000000277,"durationTicks":60,"midi":76,"name":"E5","ticks":12180,"time":30.757595749999997,"velocity":0.5039370078740157},
  {"duration":0.1515152499999992,"durationTicks":60,"midi":69,"name":"A4","ticks":12240,"time":30.909111,"velocity":0.5039370078740157},
  {"duration":0.1515152499999992,"durationTicks":60,"midi":77,"name":"F5","ticks":12300,"time":31.06062625,"velocity":0.5039370078740157},
  {"duration":0.1515152499999992,"durationTicks":60,"midi":76,"name":"E5","ticks":12360,"time":31.212141499999998,"velocity":0.5039370078740157},
  {"duration":0.15151525000000277,"durationTicks":60,"midi":74,"name":"D5","ticks":12420,"time":31.363656749999997,"velocity":0.5039370078740157},
  {"duration":0.1515152499999992,"durationTicks":60,"midi":72,"name":"C5","ticks":12480,"time":31.515172,"velocity":0.5039370078740157},
  {"duration":0.1515152499999992,"durationTicks":60,"midi":71,"name":"B4","ticks":12540,"time":31.66668725,"velocity":0.5039370078740157},
  {"duration":0.1515152499999992,"durationTicks":60,"midi":81,"name":"A5","ticks":12600,"time":31.818202499999998,"velocity":0.5039370078740157},
  {"duration":0.1515152499999992,"durationTicks":60,"midi":80,"name":"G#5","ticks":12660,"time":31.969717749999997,"velocity":0.5039370078740157},
  {"duration":0.15151525000000277,"durationTicks":60,"midi":78,"name":"F#5","ticks":12720,"time":32.121233,"velocity":0.5039370078740157},
  {"duration":0.15151524999999566,"durationTicks":60,"midi":76,"name":"E5","ticks":12780,"time":32.27274825,"velocity":0.5039370078740157},
  {"duration":0.4545457500000012,"durationTicks":180,"midi":81,"name":"A5","ticks":12840,"time":32.424263499999995,"velocity":0.5039370078740157},
  {"duration":0.15151525000000277,"durationTicks":60,"midi":74,"name":"D5","ticks":13020,"time":32.878809249999996,"velocity":0.5039370078740157},
  {"duration":0.07575762500000138,"durationTicks":30,"midi":71,"name":"B4","ticks":13080,"time":33.0303245,"velocity":0.5039370078740157},
  {"duration":0.07575762499999428,"durationTicks":30,"midi":72,"name":"C5","ticks":13110,"time":33.106082125,"velocity":0.5039370078740157},
  {"duration":0.30303050000000553,"durationTicks":120,"midi":71,"name":"B4","ticks":13140,"time":33.181839749999995,"velocity":0.5039370078740157},
  {"duration":0.15151524999999566,"durationTicks":60,"midi":69,"name":"A4","ticks":13260,"time":33.48487025,"velocity":0.5039370078740157},
  {"duration":0.4545457500000012,"durationTicks":180,"midi":69,"name":"A4","ticks":13320,"time":33.636385499999996,"velocity":0.5039370078740157},
  {"duration":0.15151525000000277,"durationTicks":60,"midi":69,"name":"A4","ticks":13500,"time":34.09093125,"velocity":0.5039370078740157},
  {"duration":0.15151524999999566,"durationTicks":60,"midi":70,"name":"A#4","ticks":13560,"time":34.2424465,"velocity":0.5039370078740157},
  {"duration":0.15151525000000277,"durationTicks":60,"midi":72,"name":"C5","ticks":13620,"time":34.393961749999995,"velocity":0.5039370078740157},
  {"duration":0.3030304999999984,"durationTicks":120,"midi":62,"name":"D4","ticks":13680,"time":34.545477,"velocity":0.5039370078740157},
  {"duration":0.3030304999999984,"durationTicks":120,"midi":66,"name":"F#4","ticks":13800,"time":34.8485075,"velocity":0.5039370078740157},
  {"duration":0.30303050000000553,"durationTicks":120,"midi":69,"name":"A4","ticks":13920,"time":35.151537999999995,"velocity":0.5039370078740157},
  {"duration":0.15151524999999566,"durationTicks":60,"midi":70,"name":"A#4","ticks":14040,"time":35.4545685,"velocity":0.5039370078740157},
  {"duration":0.15151525000000277,"durationTicks":60,"midi":67,"name":"G4","ticks":14100,"time":35.606083749999996,"velocity":0.5039370078740157},
  {"duration":0.15151524999999566,"durationTicks":60,"midi":69,"name":"A4","ticks":14160,"time":35.757599,"velocity":0.5039370078740157},
  {"duration":0.15151525000000277,"durationTicks":60,"midi":70,"name":"A#4","ticks":14220,"time":35.909114249999995,"velocity":0.5039370078740157},
  {"duration":0.15151525000000277,"durationTicks":60,"midi":72,"name":"C5","ticks":14280,"time":36.0606295,"velocity":0.5039370078740157},
  {"duration":0.15151524999999566,"durationTicks":60,"midi":74,"name":"D5","ticks":14340,"time":36.21214475,"velocity":0.5039370078740157},
  {"duration":0.15151525000000277,"durationTicks":60,"midi":64,"name":"E4","ticks":14400,"time":36.363659999999996,"velocity":0.5039370078740157},
  {"duration":0.15151524999999566,"durationTicks":60,"midi":74,"name":"D5","ticks":14460,"time":36.51517525,"velocity":0.5039370078740157},
  {"duration":0.15151525000000277,"durationTicks":60,"midi":72,"name":"C5","ticks":14520,"time":36.666690499999994,"velocity":0.5039370078740157},
  {"duration":0.15151525000000277,"durationTicks":60,"midi":70,"name":"A#4","ticks":14580,"time":36.81820575,"velocity":0.5039370078740157},
  {"duration":0.15151524999999566,"durationTicks":60,"midi":69,"name":"A4","ticks":14640,"time":36.969721,"velocity":0.5039370078740157},
  {"duration":0.15151525000000277,"durationTicks":60,"midi":67,"name":"G4","ticks":14700,"time":37.121236249999995,"velocity":0.5039370078740157},
  {"duration":0.3030304999999984,"durationTicks":120,"midi":69,"name":"A4","ticks":14760,"time":37.2727515,"velocity":0.5039370078740157},
  {"duration":0.15151525000000277,"durationTicks":60,"midi":77,"name":"F5","ticks":14880,"time":37.575782,"velocity":0.5039370078740157},
  {"duration":0.15151524999999566,"durationTicks":60,"midi":76,"name":"E5","ticks":14940,"time":37.72729725,"velocity":0.5039370078740157},
  {"duration":0.30303050000000553,"durationTicks":120,"midi":77,"name":"F5","ticks":15000,"time":37.878812499999995,"velocity":0.5039370078740157},
  {"duration":0.3030304999999984,"durationTicks":120,"midi":67,"name":"G4","ticks":15120,"time":38.181843,"velocity":0.5039370078740157},
  {"duration":0.3030304999999984,"durationTicks":120,"midi":76,"name":"E5","ticks":15240,"time":38.4848735,"velocity":0.5039370078740157},
  {"duration":0.15151525000000277,"durationTicks":60,"midi":74,"name":"D5","ticks":15480,"time":39.090934499999996,"velocity":0.5039370078740157},
  {"duration":0.15151524999999566,"durationTicks":60,"midi":76,"name":"E5","ticks":15540,"time":39.24244975,"velocity":0.5039370078740157},
  {"duration":0.15151525000000277,"durationTicks":60,"midi":77,"name":"F5","ticks":15600,"time":39.393964999999994,"velocity":0.5039370078740157},
  {"duration":0.15151525000000277,"durationTicks":60,"midi":79,"name":"G5","ticks":15660,"time":39.54548025,"velocity":0.5039370078740157},
  {"duration":0.15151524999999566,"durationTicks":60,"midi":81,"name":"A5","ticks":15720,"time":39.6969955,"velocity":0.5039370078740157},
  {"duration":0.15151525000000277,"durationTicks":60,"midi":82,"name":"A#5","ticks":15780,"time":39.848510749999996,"velocity":0.5039370078740157},
  {"duration":0.15151524999999566,"durationTicks":60,"midi":73,"name":"C#5","ticks":15840,"time":40.000026,"velocity":0.5039370078740157},
  {"duration":0.15151525000000277,"durationTicks":60,"midi":82,"name":"A#5","ticks":15900,"time":40.151541249999994,"velocity":0.5039370078740157},
  {"duration":0.15151525000000277,"durationTicks":60,"midi":81,"name":"A5","ticks":15960,"time":40.3030565,"velocity":0.5039370078740157},
  {"duration":0.15151524999999566,"durationTicks":60,"midi":79,"name":"G5","ticks":16020,"time":40.45457175,"velocity":0.5039370078740157},
  {"duration":0.15151525000000277,"durationTicks":60,"midi":77,"name":"F5","ticks":16080,"time":40.606086999999995,"velocity":0.5039370078740157},
  {"duration":0.15151525000000277,"durationTicks":60,"midi":76,"name":"E5","ticks":16140,"time":40.75760225,"velocity":0.5039370078740157},
  {"duration":0.3030304999999984,"durationTicks":120,"midi":77,"name":"F5","ticks":16200,"time":40.9091175,"velocity":0.5039370078740157},
  {"duration":0.3030304999999984,"durationTicks":120,"midi":74,"name":"D5","ticks":16320,"time":41.212148,"velocity":0.5039370078740157},
  {"duration":0.4545457500000012,"durationTicks":180,"midi":67,"name":"G4","ticks":16440,"time":41.5151785,"velocity":0.5039370078740157},
  {"duration":0.15151524999999566,"durationTicks":60,"midi":74,"name":"D5","ticks":16620,"time":41.96972425,"velocity":0.5039370078740157},
  {"duration":0.15151525000000277,"durationTicks":60,"midi":73,"name":"C#5","ticks":16680,"time":42.121239499999994,"velocity":0.5039370078740157},
  {"duration":0.15151525000000277,"durationTicks":60,"midi":76,"name":"E5","ticks":16740,"time":42.27275475,"velocity":0.5039370078740157},
  {"duration":0.15151524999999566,"durationTicks":60,"midi":69,"name":"A4","ticks":16800,"time":42.42427,"velocity":0.5039370078740157},
  {"duration":0.15151525000000277,"durationTicks":60,"midi":73,"name":"C#5","ticks":16860,"time":42.575785249999996,"velocity":0.5039370078740157},
  {"duration":0.15151524999999566,"durationTicks":60,"midi":74,"name":"D5","ticks":16920,"time":42.7273005,"velocity":0.5039370078740157},
  {"duration":0.15151525000000277,"durationTicks":60,"midi":71,"name":"B4","ticks":16980,"time":42.878815749999994,"velocity":0.5039370078740157},
  {"duration":0.4545457500000012,"durationTicks":180,"midi":73,"name":"C#5","ticks":17040,"time":43.030331,"velocity":0.5039370078740157},
  {"duration":0.15151525000000277,"durationTicks":60,"midi":74,"name":"D5","ticks":17220,"time":43.48487675,"velocity":0.5039370078740157},
  {"duration":0.15151524999999566,"durationTicks":60,"midi":74,"name":"D5","ticks":17280,"time":43.636392,"velocity":0.5039370078740157},
  {"duration":0.15151525000000277,"durationTicks":60,"midi":72,"name":"C5","ticks":17340,"time":43.787907249999996,"velocity":0.5039370078740157},
  {"duration":0.15151524999999566,"durationTicks":60,"midi":70,"name":"A#4","ticks":17400,"time":43.9394225,"velocity":0.5039370078740157},
  {"duration":0.15151525000000277,"durationTicks":60,"midi":69,"name":"A4","ticks":17460,"time":44.090937749999995,"velocity":0.5039370078740157},
  {"duration":0.15151525000000277,"durationTicks":60,"midi":67,"name":"G4","ticks":17520,"time":44.242453,"velocity":0.5039370078740157},
  {"duration":0.15151524999999566,"durationTicks":60,"midi":65,"name":"F4","ticks":17580,"time":44.39396825,"velocity":0.5039370078740157},
  {"duration":0.15151525000000277,"durationTicks":60,"midi":70,"name":"A#4","ticks":17640,"time":44.545483499999996,"velocity":0.5039370078740157},
  {"duration":0.15151524999999566,"durationTicks":60,"midi":61,"name":"C#4","ticks":17700,"time":44.69699875,"velocity":0.5039370078740157},
  {"duration":0.15151525000000277,"durationTicks":60,"midi":62,"name":"D4","ticks":17760,"time":44.848513999999994,"velocity":0.5039370078740157},
  {"duration":0.15151525000000277,"durationTicks":60,"midi":64,"name":"E4","ticks":17820,"time":45.00002925,"velocity":0.5039370078740157},
  {"duration":0.15151524999999566,"durationTicks":60,"midi":65,"name":"F4","ticks":17880,"time":45.1515445,"velocity":0.5039370078740157},
  {"duration":0.15151525000000277,"durationTicks":60,"midi":67,"name":"G4","ticks":17940,"time":45.303059749999996,"velocity":0.5039370078740157},
  {"duration":0.15151524999999566,"durationTicks":60,"midi":69,"name":"A4","ticks":18000,"time":45.454575,"velocity":0.5039370078740157},
  {"duration":0.15151525000000277,"durationTicks":60,"midi":74,"name":"D5","ticks":18060,"time":45.606090249999994,"velocity":0.5039370078740157},
  {"duration":0.3030304999999984,"durationTicks":120,"midi":65,"name":"F4","ticks":18120,"time":45.7576055,"velocity":0.5039370078740157},
  {"duration":0.15151525000000277,"durationTicks":60,"midi":64,"name":"E4","ticks":18240,"time":46.060635999999995,"velocity":0.5039370078740157},
  {"duration":0.15151524999999566,"durationTicks":60,"midi":62,"name":"D4","ticks":18300,"time":46.21215125,"velocity":0.5039370078740157},
  {"duration":1.8181830000000048,"durationTicks":720,"midi":62,"name":"D4","ticks":18360,"time":46.363666499999994,"velocity":0.5039370078740157}
];

console.log({lh});

const rh = [
  {"duration":0.1515152500000001,"durationTicks":60,"midi":50,"name":"D3","ticks":720,"time":1.8181829999999999,"velocity":0.5039370078740157},
{"duration":0.15151524999999966,"durationTicks":60,"midi":52,"name":"E3","ticks":780,"time":1.96969825,"velocity":0.5039370078740157},
{"duration":0.1515152500000001,"durationTicks":60,"midi":53,"name":"F3","ticks":840,"time":2.1212134999999996,"velocity":0.5039370078740157},
{"duration":0.1515152500000001,"durationTicks":60,"midi":55,"name":"G3","ticks":900,"time":2.2727287499999997,"velocity":0.5039370078740157},
{"duration":0.1515152500000001,"durationTicks":60,"midi":57,"name":"A3","ticks":960,"time":2.424244,"velocity":0.5039370078740157},
{"duration":0.1515152500000001,"durationTicks":60,"midi":58,"name":"A#3","ticks":1020,"time":2.57575925,"velocity":0.5039370078740157},
{"duration":0.15151524999999966,"durationTicks":60,"midi":49,"name":"C#3","ticks":1080,"time":2.7272745,"velocity":0.5039370078740157},
{"duration":0.1515152500000001,"durationTicks":60,"midi":58,"name":"A#3","ticks":1140,"time":2.8787897499999997,"velocity":0.5039370078740157},
{"duration":0.1515152500000001,"durationTicks":60,"midi":57,"name":"A3","ticks":1200,"time":3.030305,"velocity":0.5039370078740157},
{"duration":0.15151524999999966,"durationTicks":60,"midi":55,"name":"G3","ticks":1260,"time":3.18182025,"velocity":0.5039370078740157},
{"duration":0.1515152500000001,"durationTicks":60,"midi":53,"name":"F3","ticks":1320,"time":3.3333354999999996,"velocity":0.5039370078740157},
{"duration":0.1515152500000001,"durationTicks":60,"midi":52,"name":"E3","ticks":1380,"time":3.4848507499999997,"velocity":0.5039370078740157},
{"duration":0.3030305000000002,"durationTicks":120,"midi":53,"name":"F3","ticks":1440,"time":3.6363659999999998,"velocity":0.5039370078740157},
{"duration":0.3030304999999993,"durationTicks":120,"midi":57,"name":"A3","ticks":1560,"time":3.9393965,"velocity":0.5039370078740157},
{"duration":0.3030305000000002,"durationTicks":120,"midi":62,"name":"D4","ticks":1680,"time":4.242426999999999,"velocity":0.5039370078740157},
{"duration":0.3030305000000002,"durationTicks":120,"midi":52,"name":"E3","ticks":1800,"time":4.5454574999999995,"velocity":0.5039370078740157},
{"duration":0.3030305000000002,"durationTicks":120,"midi":55,"name":"G3","ticks":1920,"time":4.848488,"velocity":0.5039370078740157},
{"duration":0.3030305000000002,"durationTicks":120,"midi":61,"name":"C#4","ticks":2040,"time":5.1515185,"velocity":0.5039370078740157},
{"duration":0.3030304999999993,"durationTicks":120,"midi":50,"name":"D3","ticks":2160,"time":5.454549,"velocity":0.5039370078740157},
{"duration":0.3030305000000002,"durationTicks":120,"midi":62,"name":"D4","ticks":2280,"time":5.757579499999999,"velocity":0.5039370078740157},
{"duration":0.3030305000000002,"durationTicks":120,"midi":53,"name":"F3","ticks":2400,"time":6.06061,"velocity":0.5039370078740157},
{"duration":0.3030304999999993,"durationTicks":120,"midi":55,"name":"G3","ticks":2520,"time":6.3636405,"velocity":0.5039370078740157},
{"duration":0.3030305000000002,"durationTicks":120,"midi":57,"name":"A3","ticks":2640,"time":6.666670999999999,"velocity":0.5039370078740157},
{"duration":0.3030305000000002,"durationTicks":120,"midi":58,"name":"A#3","ticks":2760,"time":6.969701499999999,"velocity":0.5039370078740157},
{"duration":0.3030305000000002,"durationTicks":120,"midi":48,"name":"C3","ticks":2880,"time":7.2727319999999995,"velocity":0.5039370078740157},
{"duration":0.3030305000000002,"durationTicks":120,"midi":60,"name":"C4","ticks":3000,"time":7.5757625,"velocity":0.5039370078740157},
{"duration":0.3030305000000002,"durationTicks":120,"midi":52,"name":"E3","ticks":3120,"time":7.878793,"velocity":0.5039370078740157},
{"duration":0.3030304999999984,"durationTicks":120,"midi":53,"name":"F3","ticks":3240,"time":8.1818235,"velocity":0.5039370078740157},
{"duration":0.3030305000000002,"durationTicks":120,"midi":55,"name":"G3","ticks":3360,"time":8.484853999999999,"velocity":0.5039370078740157},
{"duration":0.3030305000000002,"durationTicks":120,"midi":57,"name":"A3","ticks":3480,"time":8.787884499999999,"velocity":0.5039370078740157},
{"duration":0.151515250000001,"durationTicks":60,"midi":58,"name":"A#3","ticks":3600,"time":9.090914999999999,"velocity":0.5039370078740157},
{"duration":0.1515152499999992,"durationTicks":60,"midi":55,"name":"G3","ticks":3660,"time":9.24243025,"velocity":0.5039370078740157},
{"duration":0.151515250000001,"durationTicks":60,"midi":57,"name":"A3","ticks":3720,"time":9.3939455,"velocity":0.5039370078740157},
{"duration":0.1515152499999992,"durationTicks":60,"midi":58,"name":"A#3","ticks":3780,"time":9.54546075,"velocity":0.5039370078740157},
{"duration":0.1515152499999992,"durationTicks":60,"midi":60,"name":"C4","ticks":3840,"time":9.696976,"velocity":0.5039370078740157},
{"duration":0.151515250000001,"durationTicks":60,"midi":62,"name":"D4","ticks":3900,"time":9.848491249999999,"velocity":0.5039370078740157},
{"duration":0.1515152499999992,"durationTicks":60,"midi":52,"name":"E3","ticks":3960,"time":10.0000065,"velocity":0.5039370078740157},
{"duration":0.151515250000001,"durationTicks":60,"midi":62,"name":"D4","ticks":4020,"time":10.151521749999999,"velocity":0.5039370078740157},
{"duration":0.1515152499999992,"durationTicks":60,"midi":60,"name":"C4","ticks":4080,"time":10.303037,"velocity":0.5039370078740157},
{"duration":0.151515250000001,"durationTicks":60,"midi":58,"name":"A#3","ticks":4140,"time":10.454552249999999,"velocity":0.5039370078740157},
{"duration":0.1515152499999992,"durationTicks":60,"midi":57,"name":"A3","ticks":4200,"time":10.6060675,"velocity":0.5039370078740157},
{"duration":0.151515250000001,"durationTicks":60,"midi":55,"name":"G3","ticks":4260,"time":10.75758275,"velocity":0.5039370078740157},
{"duration":0.1515152499999992,"durationTicks":60,"midi":57,"name":"A3","ticks":4320,"time":10.909098,"velocity":0.5039370078740157},
{"duration":0.1515152499999992,"durationTicks":60,"midi":53,"name":"F3","ticks":4380,"time":11.06061325,"velocity":0.5039370078740157},
{"duration":0.151515250000001,"durationTicks":60,"midi":55,"name":"G3","ticks":4440,"time":11.212128499999999,"velocity":0.5039370078740157},
{"duration":0.1515152499999992,"durationTicks":60,"midi":57,"name":"A3","ticks":4500,"time":11.36364375,"velocity":0.5039370078740157},
{"duration":0.151515250000001,"durationTicks":60,"midi":58,"name":"A#3","ticks":4560,"time":11.515158999999999,"velocity":0.5039370078740157},
{"duration":0.1515152499999992,"durationTicks":60,"midi":60,"name":"C4","ticks":4620,"time":11.66667425,"velocity":0.5039370078740157},
{"duration":0.151515250000001,"durationTicks":60,"midi":50,"name":"D3","ticks":4680,"time":11.818189499999999,"velocity":0.5039370078740157},
{"duration":0.1515152499999992,"durationTicks":60,"midi":60,"name":"C4","ticks":4740,"time":11.96970475,"velocity":0.5039370078740157},
{"duration":0.1515152499999992,"durationTicks":60,"midi":58,"name":"A#3","ticks":4800,"time":12.12122,"velocity":0.5039370078740157},
{"duration":0.151515250000001,"durationTicks":60,"midi":57,"name":"A3","ticks":4860,"time":12.272735249999998,"velocity":0.5039370078740157},
{"duration":0.1515152499999992,"durationTicks":60,"midi":55,"name":"G3","ticks":4920,"time":12.4242505,"velocity":0.5039370078740157},
{"duration":0.151515250000001,"durationTicks":60,"midi":53,"name":"F3","ticks":4980,"time":12.575765749999999,"velocity":0.5039370078740157},
{"duration":0.1515152499999992,"durationTicks":60,"midi":52,"name":"E3","ticks":5040,"time":12.727281,"velocity":0.5039370078740157},
{"duration":0.151515250000001,"durationTicks":60,"midi":48,"name":"C3","ticks":5100,"time":12.878796249999999,"velocity":0.5039370078740157},
{"duration":0.1515152499999992,"durationTicks":60,"midi":50,"name":"D3","ticks":5160,"time":13.0303115,"velocity":0.5039370078740157},
{"duration":0.1515152499999992,"durationTicks":60,"midi":52,"name":"E3","ticks":5220,"time":13.181826749999999,"velocity":0.5039370078740157},
{"duration":0.151515250000001,"durationTicks":60,"midi":53,"name":"F3","ticks":5280,"time":13.333341999999998,"velocity":0.5039370078740157},
{"duration":0.1515152499999992,"durationTicks":60,"midi":55,"name":"G3","ticks":5340,"time":13.48485725,"velocity":0.5039370078740157},
{"duration":0.151515250000001,"durationTicks":60,"midi":45,"name":"A2","ticks":5400,"time":13.636372499999998,"velocity":0.5039370078740157},
{"duration":0.1515152499999992,"durationTicks":60,"midi":55,"name":"G3","ticks":5460,"time":13.78788775,"velocity":0.5039370078740157},
{"duration":0.151515250000001,"durationTicks":60,"midi":53,"name":"F3","ticks":5520,"time":13.939402999999999,"velocity":0.5039370078740157},
{"duration":0.1515152499999992,"durationTicks":60,"midi":52,"name":"E3","ticks":5580,"time":14.09091825,"velocity":0.5039370078740157},
{"duration":0.151515250000001,"durationTicks":60,"midi":50,"name":"D3","ticks":5640,"time":14.242433499999999,"velocity":0.5039370078740157},
{"duration":0.1515152499999992,"durationTicks":60,"midi":48,"name":"C3","ticks":5700,"time":14.39394875,"velocity":0.5039370078740157},
{"duration":0.1515152499999992,"durationTicks":60,"midi":50,"name":"D3","ticks":5760,"time":14.545463999999999,"velocity":0.5039370078740157},
{"duration":0.151515250000001,"durationTicks":60,"midi":46,"name":"A#2","ticks":5820,"time":14.696979249999998,"velocity":0.5039370078740157},
{"duration":0.3030305000000002,"durationTicks":120,"midi":48,"name":"C3","ticks":5880,"time":14.8484945,"velocity":0.5039370078740157},
{"duration":0.3030305000000002,"durationTicks":120,"midi":36,"name":"C2","ticks":6000,"time":15.151525,"velocity":0.5039370078740157},
{"duration":0.1515152499999992,"durationTicks":60,"midi":41,"name":"F2","ticks":6120,"time":15.4545555,"velocity":0.5039370078740157},
{"duration":0.151515250000001,"durationTicks":60,"midi":43,"name":"G2","ticks":6180,"time":15.606070749999999,"velocity":0.5039370078740157},
{"duration":0.1515152499999992,"durationTicks":60,"midi":45,"name":"A2","ticks":6240,"time":15.757586,"velocity":0.5039370078740157},
{"duration":0.1515152499999992,"durationTicks":60,"midi":46,"name":"A#2","ticks":6300,"time":15.909101249999999,"velocity":0.5039370078740157},
{"duration":0.1515152499999992,"durationTicks":60,"midi":48,"name":"C3","ticks":6360,"time":16.0606165,"velocity":0.5039370078740157},
{"duration":0.15151525000000277,"durationTicks":60,"midi":50,"name":"D3","ticks":6420,"time":16.212131749999998,"velocity":0.5039370078740157},
{"duration":0.1515152499999992,"durationTicks":60,"midi":40,"name":"E2","ticks":6480,"time":16.363647,"velocity":0.5039370078740157},
{"duration":0.1515152499999992,"durationTicks":60,"midi":50,"name":"D3","ticks":6540,"time":16.51516225,"velocity":0.5039370078740157},
{"duration":0.1515152499999992,"durationTicks":60,"midi":48,"name":"C3","ticks":6600,"time":16.6666775,"velocity":0.5039370078740157},
{"duration":0.1515152499999992,"durationTicks":60,"midi":46,"name":"A#2","ticks":6660,"time":16.818192749999998,"velocity":0.5039370078740157},
{"duration":0.15151525000000277,"durationTicks":60,"midi":45,"name":"A2","ticks":6720,"time":16.969707999999997,"velocity":0.5039370078740157},
{"duration":0.1515152499999992,"durationTicks":60,"midi":43,"name":"G2","ticks":6780,"time":17.12122325,"velocity":0.5039370078740157},
{"duration":0.1515152499999992,"durationTicks":60,"midi":45,"name":"A2","ticks":6840,"time":17.2727385,"velocity":0.5039370078740157},
{"duration":0.1515152499999992,"durationTicks":60,"midi":46,"name":"A#2","ticks":6900,"time":17.42425375,"velocity":0.5039370078740157},
{"duration":0.15151525000000277,"durationTicks":60,"midi":48,"name":"C3","ticks":6960,"time":17.575768999999998,"velocity":0.5039370078740157},
{"duration":0.1515152499999992,"durationTicks":60,"midi":50,"name":"D3","ticks":7020,"time":17.72728425,"velocity":0.5039370078740157},
{"duration":0.1515152499999992,"durationTicks":60,"midi":52,"name":"E3","ticks":7080,"time":17.8787995,"velocity":0.5039370078740157},
{"duration":0.1515152499999992,"durationTicks":60,"midi":53,"name":"F3","ticks":7140,"time":18.03031475,"velocity":0.5039370078740157},
{"duration":0.1515152499999992,"durationTicks":60,"midi":43,"name":"G2","ticks":7200,"time":18.181829999999998,"velocity":0.5039370078740157},
{"duration":0.15151525000000277,"durationTicks":60,"midi":53,"name":"F3","ticks":7260,"time":18.333345249999997,"velocity":0.5039370078740157},
{"duration":0.1515152499999992,"durationTicks":60,"midi":52,"name":"E3","ticks":7320,"time":18.4848605,"velocity":0.5039370078740157},
{"duration":0.1515152499999992,"durationTicks":60,"midi":50,"name":"D3","ticks":7380,"time":18.63637575,"velocity":0.5039370078740157},
{"duration":0.1515152499999992,"durationTicks":60,"midi":48,"name":"C3","ticks":7440,"time":18.787891,"velocity":0.5039370078740157},
{"duration":0.15151525000000277,"durationTicks":60,"midi":46,"name":"A#2","ticks":7500,"time":18.939406249999998,"velocity":0.5039370078740157},
{"duration":0.1515152499999992,"durationTicks":60,"midi":45,"name":"A2","ticks":7560,"time":19.0909215,"velocity":0.5039370078740157},
{"duration":0.1515152499999992,"durationTicks":60,"midi":46,"name":"A#2","ticks":7620,"time":19.24243675,"velocity":0.5039370078740157},
{"duration":0.1515152499999992,"durationTicks":60,"midi":48,"name":"C3","ticks":7680,"time":19.393952,"velocity":0.5039370078740157},
{"duration":0.1515152499999992,"durationTicks":60,"midi":45,"name":"A2","ticks":7740,"time":19.545467249999998,"velocity":0.5039370078740157},
{"duration":0.15151525000000277,"durationTicks":60,"midi":46,"name":"A#2","ticks":7800,"time":19.696982499999997,"velocity":0.5039370078740157},
{"duration":0.1515152499999992,"durationTicks":60,"midi":48,"name":"C3","ticks":7860,"time":19.84849775,"velocity":0.5039370078740157},
{"duration":0.3030304999999984,"durationTicks":120,"midi":42,"name":"F#2","ticks":7920,"time":20.000013,"velocity":0.5039370078740157},
{"duration":0.1515152499999992,"durationTicks":60,"midi":43,"name":"G2","ticks":8280,"time":20.909104499999998,"velocity":0.5039370078740157},
{"duration":0.15151525000000277,"durationTicks":60,"midi":45,"name":"A2","ticks":8340,"time":21.060619749999997,"velocity":0.5039370078740157},
{"duration":0.1515152499999992,"durationTicks":60,"midi":46,"name":"A#2","ticks":8400,"time":21.212135,"velocity":0.5039370078740157},
{"duration":0.1515152499999992,"durationTicks":60,"midi":43,"name":"G2","ticks":8460,"time":21.36365025,"velocity":0.5039370078740157},
{"duration":0.1515152499999992,"durationTicks":60,"midi":45,"name":"A2","ticks":8520,"time":21.5151655,"velocity":0.5039370078740157},
{"duration":0.15151525000000277,"durationTicks":60,"midi":46,"name":"A#2","ticks":8580,"time":21.666680749999998,"velocity":0.5039370078740157},
{"duration":0.3030304999999984,"durationTicks":120,"midi":40,"name":"E2","ticks":8640,"time":21.818196,"velocity":0.5039370078740157},
{"duration":0.3030304999999984,"durationTicks":120,"midi":41,"name":"F2","ticks":9000,"time":22.7272875,"velocity":0.5039370078740157},
{"duration":0.303030500000002,"durationTicks":120,"midi":53,"name":"F3","ticks":9120,"time":23.030317999999998,"velocity":0.5039370078740157},
{"duration":0.3030304999999984,"durationTicks":120,"midi":50,"name":"D3","ticks":9240,"time":23.3333485,"velocity":0.5039370078740157},
{"duration":0.303030500000002,"durationTicks":120,"midi":47,"name":"B2","ticks":9360,"time":23.636378999999998,"velocity":0.5039370078740157},
{"duration":0.3030304999999984,"durationTicks":120,"midi":44,"name":"G#2","ticks":9480,"time":23.9394095,"velocity":0.5039370078740157},
{"duration":0.3030304999999984,"durationTicks":120,"midi":40,"name":"E2","ticks":9600,"time":24.24244,"velocity":0.5039370078740157},
{"duration":0.15151525000000277,"durationTicks":60,"midi":45,"name":"A2","ticks":9720,"time":24.545470499999997,"velocity":0.5039370078740157},
{"duration":0.1515152499999992,"durationTicks":60,"midi":44,"name":"G#2","ticks":9780,"time":24.69698575,"velocity":0.5039370078740157},
{"duration":0.1515152499999992,"durationTicks":60,"midi":45,"name":"A2","ticks":9840,"time":24.848501,"velocity":0.5039370078740157},
{"duration":0.1515152499999992,"durationTicks":60,"midi":47,"name":"B2","ticks":9900,"time":25.000016249999998,"velocity":0.5039370078740157},
{"duration":0.15151525000000277,"durationTicks":60,"midi":48,"name":"C3","ticks":9960,"time":25.151531499999997,"velocity":0.5039370078740157},
{"duration":0.1515152499999992,"durationTicks":60,"midi":50,"name":"D3","ticks":10020,"time":25.30304675,"velocity":0.5039370078740157},
{"duration":0.07575762499999783,"durationTicks":30,"midi":52,"name":"E3","ticks":10080,"time":25.454562,"velocity":0.5039370078740157},
{"duration":0.08333338750000152,"durationTicks":33,"midi":53,"name":"F3","ticks":10110,"time":25.530319624999997,"velocity":0.3779527559055118},
{"duration":0.08333338750000152,"durationTicks":33,"midi":52,"name":"E3","ticks":10140,"time":25.60607725,"velocity":0.3779527559055118},
{"duration":0.08333338750000152,"durationTicks":33,"midi":53,"name":"F3","ticks":10170,"time":25.681834875,"velocity":0.3779527559055118},
{"duration":0.08333338750000152,"durationTicks":33,"midi":52,"name":"E3","ticks":10200,"time":25.757592499999998,"velocity":0.3779527559055118},
{"duration":0.08333338750000152,"durationTicks":33,"midi":53,"name":"F3","ticks":10230,"time":25.833350125,"velocity":0.3779527559055118},
{"duration":0.08333338750000152,"durationTicks":33,"midi":52,"name":"E3","ticks":10260,"time":25.909107749999997,"velocity":0.3858267716535433},
{"duration":0.08333338750000152,"durationTicks":33,"midi":53,"name":"F3","ticks":10290,"time":25.984865375,"velocity":0.3858267716535433},
{"duration":0.08333338750000152,"durationTicks":33,"midi":52,"name":"E3","ticks":10320,"time":26.060623,"velocity":0.3858267716535433},
{"duration":0.08333338750000152,"durationTicks":33,"midi":53,"name":"F3","ticks":10350,"time":26.136380624999997,"velocity":0.3858267716535433},
{"duration":0.08333338750000152,"durationTicks":33,"midi":52,"name":"E3","ticks":10380,"time":26.21213825,"velocity":0.3858267716535433},
{"duration":0.08333338750000507,"durationTicks":33,"midi":53,"name":"F3","ticks":10410,"time":26.287895874999997,"velocity":0.3937007874015748},
{"duration":0.08333338750000152,"durationTicks":33,"midi":52,"name":"E3","ticks":10440,"time":26.363653499999998,"velocity":0.3937007874015748},
{"duration":0.08333338750000152,"durationTicks":33,"midi":53,"name":"F3","ticks":10470,"time":26.439411125,"velocity":0.3937007874015748},
{"duration":0.08333338750000152,"durationTicks":33,"midi":52,"name":"E3","ticks":10500,"time":26.515168749999997,"velocity":0.3937007874015748},
{"duration":0.08333338750000152,"durationTicks":33,"midi":53,"name":"F3","ticks":10530,"time":26.590926375,"velocity":0.3937007874015748},
{"duration":0.08333338750000507,"durationTicks":33,"midi":52,"name":"E3","ticks":10560,"time":26.666683999999997,"velocity":0.4015748031496063},
{"duration":0.08333338750000152,"durationTicks":33,"midi":53,"name":"F3","ticks":10590,"time":26.742441624999998,"velocity":0.4015748031496063},
{"duration":0.08333338750000152,"durationTicks":33,"midi":52,"name":"E3","ticks":10620,"time":26.81819925,"velocity":0.4015748031496063},
{"duration":0.08333338750000152,"durationTicks":33,"midi":53,"name":"F3","ticks":10650,"time":26.893956874999997,"velocity":0.4015748031496063},
{"duration":0.08333338750000152,"durationTicks":33,"midi":52,"name":"E3","ticks":10680,"time":26.9697145,"velocity":0.4015748031496063},
{"duration":0.08333338750000152,"durationTicks":33,"midi":53,"name":"F3","ticks":10710,"time":27.045472125,"velocity":0.4094488188976378},
{"duration":0.08333338750000152,"durationTicks":33,"midi":52,"name":"E3","ticks":10740,"time":27.121229749999998,"velocity":0.4094488188976378},
{"duration":0.08333338750000152,"durationTicks":33,"midi":53,"name":"F3","ticks":10770,"time":27.196987375,"velocity":0.4094488188976378},
{"duration":0.08333338750000152,"durationTicks":33,"midi":52,"name":"E3","ticks":10800,"time":27.272744999999997,"velocity":0.4094488188976378},
{"duration":0.08333338750000152,"durationTicks":33,"midi":53,"name":"F3","ticks":10830,"time":27.348502625,"velocity":0.41732283464566927},
{"duration":0.08333338750000152,"durationTicks":33,"midi":52,"name":"E3","ticks":10860,"time":27.42426025,"velocity":0.41732283464566927},
{"duration":0.08333338750000152,"durationTicks":33,"midi":53,"name":"F3","ticks":10890,"time":27.500017874999998,"velocity":0.41732283464566927},
{"duration":0.08333338750000152,"durationTicks":33,"midi":52,"name":"E3","ticks":10920,"time":27.5757755,"velocity":0.41732283464566927},
{"duration":0.08333338750000152,"durationTicks":33,"midi":53,"name":"F3","ticks":10950,"time":27.651533124999997,"velocity":0.41732283464566927},
{"duration":0.08333338750000152,"durationTicks":33,"midi":52,"name":"E3","ticks":10980,"time":27.727290749999998,"velocity":0.4251968503937008},
{"duration":0.08333338750000152,"durationTicks":33,"midi":53,"name":"F3","ticks":11010,"time":27.803048375,"velocity":0.4251968503937008},
{"duration":0.08333338750000152,"durationTicks":33,"midi":52,"name":"E3","ticks":11040,"time":27.878805999999997,"velocity":0.4251968503937008},
{"duration":0.08333338750000152,"durationTicks":33,"midi":53,"name":"F3","ticks":11070,"time":27.954563625,"velocity":0.4251968503937008},
{"duration":0.08333338750000507,"durationTicks":33,"midi":52,"name":"E3","ticks":11100,"time":28.030321249999997,"velocity":0.4251968503937008},
{"duration":0.08333338750000152,"durationTicks":33,"midi":53,"name":"F3","ticks":11130,"time":28.106078874999998,"velocity":0.4330708661417323},
{"duration":0.08333338750000152,"durationTicks":33,"midi":52,"name":"E3","ticks":11160,"time":28.1818365,"velocity":0.4330708661417323},
{"duration":0.08333338750000152,"durationTicks":33,"midi":53,"name":"F3","ticks":11190,"time":28.257594124999997,"velocity":0.4330708661417323},
{"duration":0.08333338750000152,"durationTicks":33,"midi":52,"name":"E3","ticks":11220,"time":28.33335175,"velocity":0.4330708661417323},
{"duration":0.08333338750000152,"durationTicks":33,"midi":53,"name":"F3","ticks":11250,"time":28.409109375,"velocity":0.4330708661417323},
{"duration":0.08333338750000152,"durationTicks":33,"midi":52,"name":"E3","ticks":11280,"time":28.484866999999998,"velocity":0.4409448818897638},
{"duration":0.08333338750000152,"durationTicks":33,"midi":53,"name":"F3","ticks":11310,"time":28.560624625,"velocity":0.4409448818897638},
{"duration":0.08333338750000152,"durationTicks":33,"midi":52,"name":"E3","ticks":11340,"time":28.636382249999997,"velocity":0.4409448818897638},
{"duration":0.08333338750000152,"durationTicks":33,"midi":53,"name":"F3","ticks":11370,"time":28.712139875,"velocity":0.4409448818897638},
{"duration":0.08333338750000152,"durationTicks":33,"midi":52,"name":"E3","ticks":11400,"time":28.7878975,"velocity":0.4409448818897638},
{"duration":0.08333338750000152,"durationTicks":33,"midi":53,"name":"F3","ticks":11430,"time":28.863655124999998,"velocity":0.44881889763779526},
{"duration":0.08333338750000152,"durationTicks":33,"midi":52,"name":"E3","ticks":11460,"time":28.93941275,"velocity":0.44881889763779526},
{"duration":0.08333338750000152,"durationTicks":33,"midi":53,"name":"F3","ticks":11490,"time":29.015170374999997,"velocity":0.44881889763779526},
{"duration":0.08333338750000152,"durationTicks":33,"midi":52,"name":"E3","ticks":11520,"time":29.090927999999998,"velocity":0.44881889763779526},
{"duration":0.08333338750000152,"durationTicks":33,"midi":53,"name":"F3","ticks":11550,"time":29.166685625,"velocity":0.44881889763779526},
{"duration":0.08333338750000152,"durationTicks":33,"midi":52,"name":"E3","ticks":11580,"time":29.242443249999997,"velocity":0.4566929133858268},
{"duration":0.08333338750000152,"durationTicks":33,"midi":53,"name":"F3","ticks":11610,"time":29.318200875,"velocity":0.4566929133858268},
{"duration":0.08333338750000152,"durationTicks":33,"midi":52,"name":"E3","ticks":11640,"time":29.393958499999997,"velocity":0.4566929133858268},
{"duration":0.08333338750000152,"durationTicks":33,"midi":53,"name":"F3","ticks":11670,"time":29.469716124999998,"velocity":0.4566929133858268},
{"duration":0.08333338750000152,"durationTicks":33,"midi":52,"name":"E3","ticks":11700,"time":29.54547375,"velocity":0.4566929133858268},
{"duration":0.08333338750000152,"durationTicks":33,"midi":53,"name":"F3","ticks":11730,"time":29.621231374999997,"velocity":0.4645669291338583},
{"duration":0.08333338750000152,"durationTicks":33,"midi":52,"name":"E3","ticks":11760,"time":29.696989,"velocity":0.4645669291338583},
{"duration":0.08333338750000507,"durationTicks":33,"midi":53,"name":"F3","ticks":11790,"time":29.772746624999996,"velocity":0.4645669291338583},
{"duration":0.08333338750000152,"durationTicks":33,"midi":52,"name":"E3","ticks":11820,"time":29.848504249999998,"velocity":0.4645669291338583},
{"duration":0.08333338750000152,"durationTicks":33,"midi":53,"name":"F3","ticks":11850,"time":29.924261875,"velocity":0.4645669291338583},
{"duration":0.303030500000002,"durationTicks":120,"midi":52,"name":"E3","ticks":11880,"time":30.000019499999997,"velocity":0.5039370078740157},
{"duration":0.3030304999999984,"durationTicks":120,"midi":64,"name":"E4","ticks":12000,"time":30.30305,"velocity":0.5039370078740157},
{"duration":0.303030500000002,"durationTicks":120,"midi":62,"name":"D4","ticks":12120,"time":30.606080499999997,"velocity":0.5039370078740157},
{"duration":0.3030304999999984,"durationTicks":120,"midi":60,"name":"C4","ticks":12240,"time":30.909111,"velocity":0.5039370078740157},
{"duration":0.303030500000002,"durationTicks":120,"midi":59,"name":"B3","ticks":12360,"time":31.212141499999998,"velocity":0.5039370078740157},
{"duration":0.3030304999999984,"durationTicks":120,"midi":57,"name":"A3","ticks":12480,"time":31.515172,"velocity":0.5039370078740157},
{"duration":0.3030304999999984,"durationTicks":120,"midi":62,"name":"D4","ticks":12600,"time":31.818202499999998,"velocity":0.5039370078740157},
{"duration":0.3030304999999984,"durationTicks":120,"midi":64,"name":"E4","ticks":12720,"time":32.121233,"velocity":0.5039370078740157},
{"duration":0.30303050000000553,"durationTicks":120,"midi":65,"name":"F4","ticks":12840,"time":32.424263499999995,"velocity":0.5039370078740157},
{"duration":0.3030304999999984,"durationTicks":120,"midi":62,"name":"D4","ticks":12960,"time":32.727294,"velocity":0.5039370078740157},
{"duration":0.3030304999999984,"durationTicks":120,"midi":64,"name":"E4","ticks":13080,"time":33.0303245,"velocity":0.5039370078740157},
{"duration":0.3030304999999984,"durationTicks":120,"midi":52,"name":"E3","ticks":13200,"time":33.333355,"velocity":0.5039370078740157},
{"duration":0.15151525000000277,"durationTicks":60,"midi":57,"name":"A3","ticks":13320,"time":33.636385499999996,"velocity":0.5039370078740157},
{"duration":0.15151524999999566,"durationTicks":60,"midi":45,"name":"A2","ticks":13380,"time":33.78790075,"velocity":0.5039370078740157},
{"duration":0.15151525000000277,"durationTicks":60,"midi":46,"name":"A#2","ticks":13440,"time":33.939415999999994,"velocity":0.5039370078740157},
{"duration":0.15151525000000277,"durationTicks":60,"midi":48,"name":"C3","ticks":13500,"time":34.09093125,"velocity":0.5039370078740157},
{"duration":0.15151524999999566,"durationTicks":60,"midi":50,"name":"D3","ticks":13560,"time":34.2424465,"velocity":0.5039370078740157},
{"duration":0.15151525000000277,"durationTicks":60,"midi":51,"name":"D#3","ticks":13620,"time":34.393961749999995,"velocity":0.5039370078740157},
{"duration":0.15151525000000277,"durationTicks":60,"midi":42,"name":"F#2","ticks":13680,"time":34.545477,"velocity":0.5039370078740157},
{"duration":0.15151524999999566,"durationTicks":60,"midi":51,"name":"D#3","ticks":13740,"time":34.69699225,"velocity":0.5039370078740157},
{"duration":0.15151525000000277,"durationTicks":60,"midi":50,"name":"D3","ticks":13800,"time":34.8485075,"velocity":0.5039370078740157},
{"duration":0.15151524999999566,"durationTicks":60,"midi":48,"name":"C3","ticks":13860,"time":35.00002275,"velocity":0.5039370078740157},
{"duration":0.15151525000000277,"durationTicks":60,"midi":46,"name":"A#2","ticks":13920,"time":35.151537999999995,"velocity":0.5039370078740157},
{"duration":0.15151525000000277,"durationTicks":60,"midi":45,"name":"A2","ticks":13980,"time":35.30305325,"velocity":0.5039370078740157},
{"duration":0.4545457499999941,"durationTicks":180,"midi":43,"name":"G2","ticks":14040,"time":35.4545685,"velocity":0.5039370078740157},
{"duration":0.15151525000000277,"durationTicks":60,"midi":43,"name":"G2","ticks":14220,"time":35.909114249999995,"velocity":0.5039370078740157},
{"duration":0.15151525000000277,"durationTicks":60,"midi":45,"name":"A2","ticks":14280,"time":36.0606295,"velocity":0.5039370078740157},
{"duration":0.15151524999999566,"durationTicks":60,"midi":46,"name":"A#2","ticks":14340,"time":36.21214475,"velocity":0.5039370078740157},
{"duration":0.3030304999999984,"durationTicks":120,"midi":36,"name":"C2","ticks":14400,"time":36.363659999999996,"velocity":0.5039370078740157},
{"duration":0.30303050000000553,"durationTicks":120,"midi":43,"name":"G2","ticks":14520,"time":36.666690499999994,"velocity":0.5039370078740157},
{"duration":0.3030304999999984,"durationTicks":120,"midi":48,"name":"C3","ticks":14640,"time":36.969721,"velocity":0.5039370078740157},
{"duration":0.15151525000000277,"durationTicks":60,"midi":53,"name":"F3","ticks":14760,"time":37.2727515,"velocity":0.5039370078740157},
{"duration":0.15151524999999566,"durationTicks":60,"midi":55,"name":"G3","ticks":14820,"time":37.42426675,"velocity":0.5039370078740157},
{"duration":0.15151525000000277,"durationTicks":60,"midi":57,"name":"A3","ticks":14880,"time":37.575782,"velocity":0.5039370078740157},
{"duration":0.15151524999999566,"durationTicks":60,"midi":59,"name":"B3","ticks":14940,"time":37.72729725,"velocity":0.5039370078740157},
{"duration":0.15151525000000277,"durationTicks":60,"midi":61,"name":"C#4","ticks":15000,"time":37.878812499999995,"velocity":0.5039370078740157},
{"duration":0.15151525000000277,"durationTicks":60,"midi":62,"name":"D4","ticks":15060,"time":38.03032775,"velocity":0.5039370078740157},
{"duration":0.15151524999999566,"durationTicks":60,"midi":52,"name":"E3","ticks":15120,"time":38.181843,"velocity":0.5039370078740157},
{"duration":0.15151525000000277,"durationTicks":60,"midi":62,"name":"D4","ticks":15180,"time":38.333358249999996,"velocity":0.5039370078740157},
{"duration":0.15151524999999566,"durationTicks":60,"midi":61,"name":"C#4","ticks":15240,"time":38.4848735,"velocity":0.5039370078740157},
{"duration":0.15151525000000277,"durationTicks":60,"midi":59,"name":"B3","ticks":15300,"time":38.636388749999995,"velocity":0.5039370078740157},
{"duration":0.15151525000000277,"durationTicks":60,"midi":57,"name":"A3","ticks":15360,"time":38.787904,"velocity":0.5039370078740157},
{"duration":0.15151524999999566,"durationTicks":60,"midi":55,"name":"G3","ticks":15420,"time":38.93941925,"velocity":0.5039370078740157},
{"duration":0.3030304999999984,"durationTicks":120,"midi":53,"name":"F3","ticks":15480,"time":39.090934499999996,"velocity":0.5039370078740157},
{"duration":0.30303050000000553,"durationTicks":120,"midi":57,"name":"A3","ticks":15600,"time":39.393964999999994,"velocity":0.5039370078740157},
{"duration":0.3030304999999984,"durationTicks":120,"midi":62,"name":"D4","ticks":15720,"time":39.6969955,"velocity":0.5039370078740157},
{"duration":0.3030304999999984,"durationTicks":120,"midi":52,"name":"E3","ticks":15840,"time":40.000026,"velocity":0.5039370078740157},
{"duration":0.3030304999999984,"durationTicks":120,"midi":55,"name":"G3","ticks":15960,"time":40.3030565,"velocity":0.5039370078740157},
{"duration":0.30303050000000553,"durationTicks":120,"midi":61,"name":"C#4","ticks":16080,"time":40.606086999999995,"velocity":0.5039370078740157},
{"duration":0.15151524999999566,"durationTicks":60,"midi":50,"name":"D3","ticks":16200,"time":40.9091175,"velocity":0.5039370078740157},
{"duration":0.15151525000000277,"durationTicks":60,"midi":52,"name":"E3","ticks":16260,"time":41.060632749999996,"velocity":0.5039370078740157},
{"duration":0.15151524999999566,"durationTicks":60,"midi":53,"name":"F3","ticks":16320,"time":41.212148,"velocity":0.5039370078740157},
{"duration":0.15151525000000277,"durationTicks":60,"midi":55,"name":"G3","ticks":16380,"time":41.363663249999995,"velocity":0.5039370078740157},
{"duration":0.15151525000000277,"durationTicks":60,"midi":57,"name":"A3","ticks":16440,"time":41.5151785,"velocity":0.5039370078740157},
{"duration":0.15151524999999566,"durationTicks":60,"midi":58,"name":"A#3","ticks":16500,"time":41.66669375,"velocity":0.5039370078740157},
{"duration":0.15151525000000277,"durationTicks":60,"midi":49,"name":"C#3","ticks":16560,"time":41.818208999999996,"velocity":0.5039370078740157},
{"duration":0.15151524999999566,"durationTicks":60,"midi":58,"name":"A#3","ticks":16620,"time":41.96972425,"velocity":0.5039370078740157},
{"duration":0.15151525000000277,"durationTicks":60,"midi":57,"name":"A3","ticks":16680,"time":42.121239499999994,"velocity":0.5039370078740157},
{"duration":0.15151525000000277,"durationTicks":60,"midi":55,"name":"G3","ticks":16740,"time":42.27275475,"velocity":0.5039370078740157},
{"duration":0.15151524999999566,"durationTicks":60,"midi":53,"name":"F3","ticks":16800,"time":42.42427,"velocity":0.5039370078740157},
{"duration":0.15151525000000277,"durationTicks":60,"midi":52,"name":"E3","ticks":16860,"time":42.575785249999996,"velocity":0.5039370078740157},
{"duration":0.15151524999999566,"durationTicks":60,"midi":53,"name":"F3","ticks":16920,"time":42.7273005,"velocity":0.5039370078740157},
{"duration":0.15151525000000277,"durationTicks":60,"midi":55,"name":"G3","ticks":16980,"time":42.878815749999994,"velocity":0.5039370078740157},
{"duration":0.3030304999999984,"durationTicks":120,"midi":57,"name":"A3","ticks":17040,"time":43.030331,"velocity":0.5039370078740157},
{"duration":0.30303050000000553,"durationTicks":120,"midi":45,"name":"A2","ticks":17160,"time":43.333361499999995,"velocity":0.5039370078740157},
{"duration":0.4545457499999941,"durationTicks":180,"midi":46,"name":"A#2","ticks":17280,"time":43.636392,"velocity":0.5039370078740157},
{"duration":0.15151525000000277,"durationTicks":60,"midi":48,"name":"C3","ticks":17460,"time":44.090937749999995,"velocity":0.5039370078740157},
{"duration":0.15151525000000277,"durationTicks":60,"midi":46,"name":"A#2","ticks":17520,"time":44.242453,"velocity":0.5039370078740157},
{"duration":0.15151524999999566,"durationTicks":60,"midi":45,"name":"A2","ticks":17580,"time":44.39396825,"velocity":0.5039370078740157},
{"duration":0.15151525000000277,"durationTicks":60,"midi":43,"name":"G2","ticks":17640,"time":44.545483499999996,"velocity":0.5039370078740157},
{"duration":0.15151524999999566,"durationTicks":60,"midi":58,"name":"A#3","ticks":17700,"time":44.69699875,"velocity":0.5039370078740157},
{"duration":0.15151525000000277,"durationTicks":60,"midi":57,"name":"A3","ticks":17760,"time":44.848513999999994,"velocity":0.5039370078740157},
{"duration":0.15151525000000277,"durationTicks":60,"midi":55,"name":"G3","ticks":17820,"time":45.00002925,"velocity":0.5039370078740157},
{"duration":0.15151524999999566,"durationTicks":60,"midi":53,"name":"F3","ticks":17880,"time":45.1515445,"velocity":0.5039370078740157},
{"duration":0.15151525000000277,"durationTicks":60,"midi":52,"name":"E3","ticks":17940,"time":45.303059749999996,"velocity":0.5039370078740157},
{"duration":0.15151524999999566,"durationTicks":60,"midi":53,"name":"F3","ticks":18000,"time":45.454575,"velocity":0.5039370078740157},
{"duration":0.15151525000000277,"durationTicks":60,"midi":55,"name":"G3","ticks":18060,"time":45.606090249999994,"velocity":0.5039370078740157},
{"duration":0.3030304999999984,"durationTicks":120,"midi":57,"name":"A3","ticks":18120,"time":45.7576055,"velocity":0.5039370078740157},
{"duration":0.3030304999999984,"durationTicks":120,"midi":45,"name":"A2","ticks":18240,"time":46.060635999999995,"velocity":0.5039370078740157},
{"duration":1.8181830000000048,"durationTicks":720,"midi":38,"name":"D2","ticks":18360,"time":46.363666499999994,"velocity":0.5039370078740157}
];

console.log({rh});

document.getElementById('play-btn')!.addEventListener('click', async () => {
  // 1. Start Audio Context (Browsers require user interaction)
  await Tone.start();
  console.log("Audio ready");
  
  // 3. Create a Synth to play the notes
  // PolySynth is used because MIDI files often contain chords
  const synth = new Tone.PolySynth(Tone.Synth, {
    envelope: {
      attack: 0.02,
      decay: 0.1,
      sustain: 0.3,
      release: 1
    }
  }).toDestination();

  // 4. Schedule the events
  [lh, rh].forEach(track => {
    
    // Tone.Part expects an array of objects with a "time" property, 
    // which track already has!
    const part = new Tone.Part((time, note) => {
      
      // Use the parameters from the note object
      synth.triggerAttackRelease(
        note.name, 
        note.duration, 
        time, 
        note.velocity
      );
      
    }, track).start(0);

    console.log(part);
    
  });

  // 5. Start the Transport to hear the music
  Tone.Transport.start();
});
